<?xml version="1.0" encoding="UTF-8" standalone="no"?>
<!-- Created with Inkscape (http://www.inkscape.org/) -->

<svg
   xmlns:dc="http://purl.org/dc/elements/1.1/"
   xmlns:cc="http://creativecommons.org/ns#"
   xmlns:rdf="http://www.w3.org/1999/02/22-rdf-syntax-ns#"
   xmlns:svg="http://www.w3.org/2000/svg"
   xmlns="http://www.w3.org/2000/svg"
   xmlns:sodipodi="http://sodipodi.sourceforge.net/DTD/sodipodi-0.dtd"
   xmlns:inkscape="http://www.inkscape.org/namespaces/inkscape"
   version="1.1"
   width="35"
   height="41.25"
   id="svg3168"
   xml:space="preserve"
   inkscape:version="0.48.3.1 r9886"
   sodipodi:docname="node-plastev-3.svg"><sodipodi:namedview
     pagecolor="#ffffff"
     bordercolor="#666666"
     borderopacity="1"
     objecttolerance="10"
     gridtolerance="10"
     guidetolerance="10"
     inkscape:pageopacity="0"
     inkscape:pageshadow="2"
     inkscape:window-width="640"
     inkscape:window-height="480"
     id="namedview3045"
     showgrid="false"
     inkscape:zoom="5.7212121"
     inkscape:cx="2.0718194"
     inkscape:cy="24.280739"
     inkscape:window-x="1930"
     inkscape:window-y="312"
     inkscape:window-maximized="0"
     inkscape:current-layer="svg3168" /><metadata
     id="metadata3174"><rdf:RDF><cc:Work
         rdf:about=""><dc:format>image/svg+xml</dc:format><dc:type
           rdf:resource="http://purl.org/dc/dcmitype/StillImage" /><dc:title></dc:title></cc:Work></rdf:RDF></metadata><defs
     id="defs3172"><clipPath
       id="clipPath3184"><path
         d="m 0,328.191 280,0 0,-319.99959 -280,0 0,319.99959 z"
         id="path3186" /></clipPath></defs><path
     d="m 22.904464,0.39261047 c 0.379899,-0.21998063 0.849114,-0.21998063 1.229014,0 l 10.19151,5.87941533 c 0.383413,0.2205527 0.616387,0.6259479 0.616387,1.0664811 l 0,11.7719381 c 0,0.440508 -0.232974,0.846851 -0.612873,1.066465 l -10.192491,5.88614 c -0.382433,0.220568 -0.851648,0.220568 -1.231547,0 L 12.715165,20.17691 C 12.332119,19.957297 12.0991,19.550954 12.0991,19.110445 l 0,-11.7719381 c 0,-0.4405332 0.233019,-0.8459284 0.616065,-1.0664811 L 22.904464,0.39261047"
     id="path3188"
     style="fill:#ffffff;fill-opacity:1;fill-rule:evenodd;stroke:none"
     inkscape:connector-curvature="0" /><path
     d="m 11.119741,20.094891 c 0.189861,-0.10994 0.42436,-0.10994 0.614221,0 l 5.093385,2.938339 c 0.191617,0.110225 0.30805,0.312829 0.30805,0.532993 l 0,5.883231 c 0,0.220152 -0.116433,0.423229 -0.306294,0.532985 l -5.093875,2.941701 c -0.191127,0.110233 -0.425626,0.110233 -0.615487,0 L 6.027461,29.982439 C 5.8360268,29.872683 5.7195718,29.669606 5.7195718,29.449454 l 0,-5.883231 c 0,-0.220164 0.116455,-0.422768 0.3078892,-0.532993 l 5.09228,-2.938339"
     id="path3188-4"
     style="fill:#ffffff;fill-opacity:1;fill-rule:evenodd;stroke:none"
     inkscape:connector-curvature="0" /><path
     d="m 5.5448728,9.432097 c 0.1898607,-0.10994 0.4243597,-0.10994 0.6142212,0 l 5.093385,2.93834 c 0.191617,0.110225 0.30805,0.312828 0.30805,0.532992 l 0,5.883231 c 0,0.220152 -0.116433,0.423229 -0.306294,0.532985 l -5.0938749,2.941701 c -0.1911276,0.110232 -0.4256266,0.110232 -0.6154873,0 L 0.45259315,19.319645 C 0.26115909,19.209889 0.14470339,19.006812 0.14470339,18.78666 l 0,-5.883231 c 0,-0.220164 0.1164557,-0.422767 0.30788976,-0.532992 L 5.5448728,9.4320961"
     id="path3188-4-7"
     style="fill:#ffffff;fill-opacity:1;fill-rule:evenodd;stroke:none"
     inkscape:connector-curvature="0" /><path
     d="m 8.8912884,4.5500521 c 0.085491,-0.049504 0.1910822,-0.049504 0.2765738,0 L 11.46133,5.8731386 c 0.08628,0.049633 0.13871,0.1408616 0.13871,0.239998 l 0,2.6491233 c 0,0.09913 -0.05242,0.1905705 -0.137919,0.2399931 l -2.2936887,1.324601 c -0.086062,0.04964 -0.1916528,0.04964 -0.2771439,0 L 6.5983177,9.0022521 C 6.5121181,8.9528304 6.45968,8.861389 6.45968,8.7622599 l 0,-2.6491233 c 0,-0.099136 0.052438,-0.1903654 0.1386377,-0.239998 l 2.2929707,-1.323087"
     id="path3188-4-7-5"
     style="fill:#ffffff;fill-opacity:1;fill-rule:evenodd;stroke:none"
     inkscape:connector-curvature="0" /></svg>